<svg width="51" height="24" viewBox="0 0 51 24" fill="none" xmlns="http://www.w3.org/2000/svg">
<path d="M10.6641 10.2676C10.6641 10.3717 10.6445 10.4792 10.6055 10.5898C10.5729 10.7005 10.5306 10.8014 10.4785 10.8926C10.3939 10.9056 10.3158 10.9349 10.2441 10.9805C10.179 11.026 10.127 11.0553 10.0879 11.0684C10.0033 11.0814 9.90234 11.0879 9.78516 11.0879C9.67448 11.0814 9.57357 11.0814 9.48242 11.0879C9.30664 11.1009 9.13086 11.1204 8.95508 11.1465C8.78581 11.1725 8.61654 11.2051 8.44727 11.2441C8.43424 11.2441 8.42122 11.2474 8.4082 11.2539C8.39518 11.2539 8.38867 11.2604 8.38867 11.2734C8.38867 11.2865 8.39193 11.2995 8.39844 11.3125C8.40495 11.3255 8.4082 11.3385 8.4082 11.3516C8.4082 11.3711 8.38867 11.3809 8.34961 11.3809C8.27799 11.3809 8.22917 11.3581 8.20312 11.3125C7.99479 11.3646 7.78646 11.4199 7.57812 11.4785C7.36979 11.5306 7.16146 11.5827 6.95312 11.6348C6.84896 11.6543 6.74479 11.6738 6.64062 11.6934C6.54297 11.7129 6.44206 11.7389 6.33789 11.7715C6.28581 11.7845 6.23372 11.8073 6.18164 11.8398L6.02539 11.9375C5.99284 11.931 5.96354 11.9277 5.9375 11.9277C5.91146 11.9212 5.88542 11.918 5.85938 11.918C5.7487 11.918 5.63151 11.9408 5.50781 11.9863C5.38411 12.0254 5.27669 12.0807 5.18555 12.1523H5.11719C5.05208 12.1523 5.00651 12.1426 4.98047 12.123C4.92188 12.1165 4.88607 12.1361 4.87305 12.1816C4.86003 12.2207 4.83724 12.2565 4.80469 12.2891C4.58333 12.3086 4.36523 12.3477 4.15039 12.4062C3.93555 12.4648 3.72396 12.5299 3.51562 12.6016C3.30729 12.6667 3.0957 12.735 2.88086 12.8066C2.67253 12.8717 2.46094 12.9238 2.24609 12.9629C2.22005 13.0931 2.20703 13.2428 2.20703 13.4121C2.20703 13.5423 2.2168 13.6921 2.23633 13.8613C2.26237 14.0306 2.31445 14.1738 2.39258 14.291V14.3105C2.39258 14.3431 2.37956 14.3659 2.35352 14.3789C2.32747 14.3919 2.31445 14.4147 2.31445 14.4473C2.31445 14.6165 2.33073 14.776 2.36328 14.9258C2.40234 15.0755 2.44141 15.222 2.48047 15.3652C2.51953 15.5085 2.55534 15.6517 2.58789 15.7949C2.62695 15.9382 2.64648 16.0846 2.64648 16.2344C2.64648 16.2734 2.64323 16.3092 2.63672 16.3418C2.63672 16.3809 2.63346 16.4199 2.62695 16.459C2.64648 16.5176 2.67904 16.5664 2.72461 16.6055C2.77018 16.6445 2.80924 16.6901 2.8418 16.7422C2.84831 16.7747 2.85156 16.804 2.85156 16.8301V16.9277C2.85156 17.0384 2.83854 17.1361 2.8125 17.2207C2.78646 17.3053 2.75391 17.3835 2.71484 17.4551C2.67578 17.5332 2.63346 17.6081 2.58789 17.6797C2.54232 17.7578 2.5 17.8424 2.46094 17.9336C2.39583 17.9466 2.34375 17.9531 2.30469 17.9531C2.20703 17.9531 2.12565 17.9271 2.06055 17.875C2.00195 17.8229 1.94987 17.7578 1.9043 17.6797C1.85872 17.6081 1.81315 17.5332 1.76758 17.4551C1.72852 17.377 1.67969 17.3118 1.62109 17.2598C1.6276 17.2272 1.63086 17.1979 1.63086 17.1719C1.63737 17.1458 1.64062 17.1165 1.64062 17.084C1.64062 16.9538 1.61784 16.8268 1.57227 16.7031C1.5332 16.5794 1.48763 16.4622 1.43555 16.3516C1.42904 16.1302 1.40625 15.9121 1.36719 15.6973C1.32812 15.4824 1.27279 15.2708 1.20117 15.0625C1.21419 14.9844 1.22396 14.9095 1.23047 14.8379C1.23698 14.7598 1.24023 14.6849 1.24023 14.6133C1.24023 14.4245 1.23047 14.2357 1.21094 14.0469C1.19141 13.8581 1.18815 13.6693 1.20117 13.4805C1.18164 13.4479 1.16211 13.4219 1.14258 13.4023C1.12305 13.3763 1.10677 13.347 1.09375 13.3145H1.05469C0.957031 13.3145 0.86263 13.3242 0.771484 13.3438C0.680339 13.3568 0.589193 13.3633 0.498047 13.3633C0.465495 13.3633 0.436198 13.3633 0.410156 13.3633C0.384115 13.3568 0.354818 13.3503 0.322266 13.3438C0.250651 13.2721 0.195312 13.1908 0.15625 13.0996C0.117188 13.0085 0.0976562 12.9141 0.0976562 12.8164C0.0976562 12.6732 0.136719 12.543 0.214844 12.4258C0.377604 12.3867 0.537109 12.3411 0.693359 12.2891C0.85612 12.2305 1.01237 12.1621 1.16211 12.084C1.18164 11.9863 1.19141 11.8887 1.19141 11.791C1.19792 11.6934 1.23372 11.6022 1.29883 11.5176C1.2793 11.4655 1.24674 11.4199 1.20117 11.3809C1.16211 11.3353 1.14258 11.2832 1.14258 11.2246C1.14258 11.1921 1.14909 11.1497 1.16211 11.0977C1.22721 11.026 1.27279 10.9349 1.29883 10.8242C1.32487 10.7135 1.34766 10.5964 1.36719 10.4727C1.38672 10.349 1.40625 10.2253 1.42578 10.1016C1.45182 9.97786 1.49414 9.86719 1.55273 9.76953C1.53971 9.71745 1.52995 9.66211 1.52344 9.60352C1.51693 9.53841 1.51367 9.47982 1.51367 9.42773C1.51367 9.34961 1.51693 9.27148 1.52344 9.19336C1.53646 9.10872 1.55599 9.0306 1.58203 8.95898C1.51042 8.87435 1.45182 8.77669 1.40625 8.66602C1.36068 8.54883 1.33789 8.4349 1.33789 8.32422C1.33789 8.10938 1.44206 7.97266 1.65039 7.91406C1.64388 7.88802 1.63737 7.86523 1.63086 7.8457C1.63086 7.82617 1.63086 7.80664 1.63086 7.78711C1.63086 7.72852 1.64714 7.67318 1.67969 7.62109C1.71224 7.56901 1.73828 7.51693 1.75781 7.46484C1.72526 7.38021 1.70898 7.30859 1.70898 7.25C1.70898 7.19792 1.71875 7.15234 1.73828 7.11328C1.75781 7.06771 1.77409 7.01888 1.78711 6.9668C1.80664 6.90169 1.81966 6.8431 1.82617 6.79102C1.83919 6.73893 1.85872 6.69336 1.88477 6.6543C1.91081 6.61523 1.94336 6.58594 1.98242 6.56641C2.02799 6.54688 2.09635 6.53711 2.1875 6.53711C2.33073 6.53711 2.46745 6.58268 2.59766 6.67383C2.73438 6.75846 2.83854 6.85612 2.91016 6.9668C2.98177 6.96029 3.04362 6.94727 3.0957 6.92773C3.1543 6.90169 3.20638 6.87891 3.25195 6.85938C3.30404 6.83984 3.35612 6.82357 3.4082 6.81055C3.4668 6.79102 3.53516 6.78451 3.61328 6.79102C3.63281 6.74544 3.66536 6.71615 3.71094 6.70312C3.76302 6.68359 3.8151 6.67057 3.86719 6.66406C3.91927 6.65104 3.9681 6.63477 4.01367 6.61523C4.05924 6.5957 4.08854 6.5599 4.10156 6.50781C4.1276 6.52734 4.1569 6.53711 4.18945 6.53711C4.22201 6.53711 4.25456 6.53385 4.28711 6.52734C4.31966 6.51432 4.35547 6.50781 4.39453 6.50781C4.43359 6.50781 4.46615 6.52083 4.49219 6.54688C4.66146 6.45573 4.84049 6.39062 5.0293 6.35156C5.22461 6.30599 5.41667 6.27995 5.60547 6.27344C6.05469 6.02604 6.52669 5.85677 7.02148 5.76562C7.52279 5.67448 8.02409 5.62891 8.52539 5.62891C8.59701 5.62891 8.66536 5.62891 8.73047 5.62891C8.80208 5.6224 8.87044 5.62565 8.93555 5.63867C9.00716 5.65169 9.08529 5.67448 9.16992 5.70703C9.26107 5.73958 9.34896 5.77865 9.43359 5.82422C9.52474 5.86979 9.60938 5.92188 9.6875 5.98047C9.76562 6.03255 9.83073 6.08138 9.88281 6.12695C9.9349 6.24414 9.96094 6.35807 9.96094 6.46875C9.96094 6.52083 9.95768 6.57292 9.95117 6.625C9.94466 6.67057 9.94141 6.7194 9.94141 6.77148C9.94141 6.84961 9.95768 6.9375 9.99023 7.03516C9.9707 7.02865 9.93815 7.02539 9.89258 7.02539C9.83398 7.02539 9.78516 7.03841 9.74609 7.06445C9.70703 7.09049 9.67122 7.11979 9.63867 7.15234C9.60612 7.1849 9.57357 7.21419 9.54102 7.24023C9.51497 7.26628 9.48893 7.2793 9.46289 7.2793C9.41081 7.2793 9.36523 7.26953 9.32617 7.25C9.29362 7.23047 9.25781 7.21094 9.21875 7.19141C9.1862 7.16536 9.15039 7.14583 9.11133 7.13281C9.07227 7.11328 9.02669 7.10677 8.97461 7.11328V7.07422C8.97461 7.0026 8.95182 6.95703 8.90625 6.9375C8.86068 6.91146 8.82487 6.87565 8.79883 6.83008C8.70117 6.82357 8.60352 6.81055 8.50586 6.79102C8.41471 6.77148 8.32031 6.76172 8.22266 6.76172C8.09245 6.76172 7.99154 6.80729 7.91992 6.89844C7.88737 6.88542 7.85807 6.86914 7.83203 6.84961C7.8125 6.83008 7.7832 6.82357 7.74414 6.83008H7.71484C7.36328 6.83008 7.01823 6.86914 6.67969 6.94727C6.34115 7.01888 6.00586 7.11003 5.67383 7.2207C5.3418 7.32487 5.00977 7.4388 4.67773 7.5625C4.3457 7.6862 4.01367 7.79362 3.68164 7.88477C3.60352 7.98893 3.52214 8.06706 3.4375 8.11914C3.35286 8.16471 3.26823 8.20378 3.18359 8.23633C3.10547 8.26888 3.02734 8.30143 2.94922 8.33398C2.87109 8.36654 2.80273 8.41862 2.74414 8.49023C2.69206 8.56185 2.64974 8.66276 2.61719 8.79297C2.59115 8.91667 2.58464 9.08919 2.59766 9.31055C2.5651 9.34961 2.54557 9.39193 2.53906 9.4375C2.53255 9.48307 2.52604 9.52865 2.51953 9.57422C2.51302 9.61328 2.50326 9.65234 2.49023 9.69141C2.47721 9.73047 2.45443 9.76628 2.42188 9.79883C2.4349 9.86393 2.44466 9.92904 2.45117 9.99414C2.45768 10.0592 2.46094 10.1243 2.46094 10.1895C2.46094 10.4629 2.41536 10.7298 2.32422 10.9902C2.35677 11.0423 2.37305 11.1009 2.37305 11.166C2.37305 11.2376 2.36328 11.3027 2.34375 11.3613C2.32422 11.4199 2.31445 11.485 2.31445 11.5566C2.31445 11.6283 2.32747 11.6868 2.35352 11.7324C2.39258 11.7324 2.41536 11.7454 2.42188 11.7715H2.48047C2.59766 11.7715 2.69857 11.7422 2.7832 11.6836C2.86784 11.625 2.95898 11.5957 3.05664 11.5957C3.07617 11.5957 3.09896 11.6022 3.125 11.6152C3.15104 11.6283 3.17383 11.6348 3.19336 11.6348C3.23893 11.6348 3.25846 11.6185 3.25195 11.5859C3.24544 11.5534 3.26172 11.5306 3.30078 11.5176L3.65234 11.459C3.8737 11.4199 4.08203 11.3743 4.27734 11.3223C4.47917 11.2637 4.67773 11.179 4.87305 11.0684C4.91862 11.0879 4.9707 11.0977 5.0293 11.0977C5.08138 11.0977 5.13672 11.0911 5.19531 11.0781C5.25391 11.0586 5.30924 11.0488 5.36133 11.0488C5.4069 11.0488 5.44271 11.0553 5.46875 11.0684C5.50781 11.0423 5.55664 11.0228 5.61523 11.0098C5.67383 10.9902 5.70638 10.9512 5.71289 10.8926H5.73242C5.75846 10.8926 5.77799 10.8991 5.79102 10.9121C5.80404 10.9251 5.82357 10.9316 5.84961 10.9316H5.88867C6.02539 10.8665 6.14909 10.8177 6.25977 10.7852C6.44206 10.7396 6.63737 10.7005 6.8457 10.668C7.05404 10.6289 7.23958 10.5638 7.40234 10.4727C7.59115 10.4727 7.77344 10.4434 7.94922 10.3848C8.13151 10.3197 8.3138 10.2871 8.49609 10.2871C8.58073 10.2871 8.65885 10.3001 8.73047 10.3262C8.79557 10.2806 8.87044 10.248 8.95508 10.2285C9.04622 10.209 9.12109 10.1732 9.17969 10.1211C9.21875 10.1276 9.25781 10.1341 9.29688 10.1406C9.34245 10.1406 9.38802 10.1406 9.43359 10.1406C9.62891 10.1406 9.81445 10.1146 9.99023 10.0625C10.1725 10.0039 10.3581 9.96159 10.5469 9.93555C10.5924 9.98763 10.6217 10.043 10.6348 10.1016C10.6543 10.1536 10.6641 10.209 10.6641 10.2676Z" fill="black"/>
<path d="M5.17578 16H8.36133C8.78516 15.9954 9.19531 15.9294 9.5918 15.8018C9.99284 15.6742 10.346 15.4896 10.6514 15.248C10.9567 15.0111 11.2005 14.7148 11.3828 14.3594C11.5651 14.0039 11.654 13.5938 11.6494 13.1289C11.6494 12.8327 11.6038 12.557 11.5127 12.3018C11.4261 12.0465 11.3031 11.8164 11.1436 11.6113C10.9932 11.4245 10.8018 11.2536 10.5693 11.0986C10.3369 10.9437 10.0954 10.8366 9.84473 10.7773V10.7568C10.0863 10.652 10.2913 10.5404 10.46 10.4219C10.6331 10.3034 10.7904 10.1576 10.9316 9.98438C11.0684 9.81576 11.1755 9.62435 11.2529 9.41016C11.335 9.19596 11.3783 8.95898 11.3828 8.69922C11.3874 8.23438 11.2985 7.83561 11.1162 7.50293C10.9339 7.17025 10.6901 6.89681 10.3848 6.68262C10.0794 6.46842 9.73079 6.3112 9.33887 6.21094C8.94694 6.10612 8.5459 6.05143 8.13574 6.04688H5.17578V16ZM6.44727 11.3447H8.46387C8.73275 11.3538 8.9834 11.3994 9.21582 11.4814C9.44824 11.5635 9.65104 11.6797 9.82422 11.8301C9.9974 11.985 10.1318 12.1719 10.2275 12.3906C10.3278 12.6094 10.3757 12.86 10.3711 13.1426C10.3711 13.4206 10.3164 13.6689 10.207 13.8877C10.1022 14.1064 9.95866 14.291 9.77637 14.4414C9.59408 14.5918 9.38444 14.7103 9.14746 14.7969C8.91048 14.8789 8.65983 14.9222 8.39551 14.9268H6.44727V11.3447ZM6.44727 10.292V7.12695H8.17676C8.42285 7.13151 8.66211 7.16341 8.89453 7.22266C9.13151 7.2819 9.34115 7.37305 9.52344 7.49609C9.70117 7.6237 9.84245 7.78548 9.94727 7.98145C10.0566 8.17741 10.1113 8.41439 10.1113 8.69238C10.1113 8.95215 10.0566 9.18001 9.94727 9.37598C9.83789 9.57194 9.69434 9.736 9.5166 9.86816C9.33887 10.0049 9.13607 10.1097 8.9082 10.1826C8.68034 10.251 8.44792 10.2874 8.21094 10.292H6.44727ZM13.7959 8.60352V9.7041H16.3115V14.9062H13.7959V16H19.9893V14.9062H17.5762V8.60352H13.7959ZM16.1475 6.66211C16.1475 6.86719 16.209 7.03809 16.332 7.1748C16.4596 7.31152 16.651 7.37988 16.9062 7.37988C17.1569 7.37988 17.346 7.31152 17.4736 7.1748C17.6012 7.03809 17.665 6.86719 17.665 6.66211C17.665 6.54818 17.6468 6.44336 17.6104 6.34766C17.5739 6.25195 17.5192 6.1722 17.4463 6.1084C17.387 6.04915 17.3118 6.00358 17.2207 5.97168C17.1296 5.93522 17.0247 5.91699 16.9062 5.91699C16.7878 5.91699 16.6807 5.93522 16.585 5.97168C16.4938 6.00358 16.4186 6.04915 16.3594 6.1084C16.2865 6.17676 16.2318 6.25879 16.1953 6.35449C16.1634 6.4502 16.1475 6.55273 16.1475 6.66211ZM25 6.8125H23.7285V8.60352H21.7871V9.58105H23.7285V13.6006C23.7285 14.0563 23.7878 14.446 23.9062 14.7695C24.0293 15.0885 24.1956 15.3483 24.4053 15.5488C24.6149 15.7539 24.861 15.9043 25.1436 16C25.4307 16.0911 25.7383 16.1367 26.0664 16.1367C26.2624 16.1367 26.4583 16.1276 26.6543 16.1094C26.8548 16.0911 27.0439 16.0638 27.2217 16.0273C27.3994 15.9954 27.5635 15.9567 27.7139 15.9111C27.8643 15.861 27.9919 15.804 28.0967 15.7402L27.9189 14.8447C27.8415 14.863 27.7412 14.8857 27.6182 14.9131C27.4997 14.9359 27.3721 14.9587 27.2354 14.9814C27.0941 15.0042 26.9505 15.0247 26.8047 15.043C26.6589 15.0566 26.5176 15.0635 26.3809 15.0635C26.194 15.0635 26.0163 15.0407 25.8477 14.9951C25.6836 14.9495 25.5378 14.8698 25.4102 14.7559C25.2826 14.6465 25.1823 14.4984 25.1094 14.3115C25.0365 14.1247 25 13.8877 25 13.6006V9.58105H27.8164V8.60352H25V6.8125ZM33.6816 16.1367C34.4017 16.1367 35.0055 15.9932 35.4932 15.7061C35.9854 15.4144 36.3545 15.0817 36.6006 14.708L35.8281 14.1064C35.5957 14.4072 35.304 14.6488 34.9531 14.8311C34.6022 15.0133 34.2012 15.1045 33.75 15.1045C33.4082 15.1045 33.096 15.0407 32.8135 14.9131C32.5309 14.7855 32.2894 14.61 32.0889 14.3867C31.8929 14.1771 31.738 13.9355 31.624 13.6621C31.5146 13.3887 31.444 13.0719 31.4121 12.7119V12.6641H36.6963V12.0967C36.6963 11.5817 36.6302 11.1032 36.498 10.6611C36.3704 10.2191 36.1745 9.83398 35.9102 9.50586C35.6458 9.18229 35.3132 8.92936 34.9121 8.74707C34.5156 8.56022 34.0508 8.4668 33.5176 8.4668C33.0938 8.4668 32.679 8.55339 32.2734 8.72656C31.8724 8.89974 31.5146 9.14811 31.2002 9.47168C30.8812 9.7998 30.626 10.2008 30.4346 10.6748C30.2432 11.1442 30.1475 11.6774 30.1475 12.2744V12.5615C30.1475 13.0765 30.234 13.5527 30.4072 13.9902C30.5804 14.4277 30.8219 14.806 31.1318 15.125C31.4417 15.444 31.8132 15.6924 32.2461 15.8701C32.6836 16.0479 33.1621 16.1367 33.6816 16.1367ZM33.5176 9.50586C33.8411 9.50586 34.1191 9.5651 34.3516 9.68359C34.5885 9.80208 34.7845 9.95703 34.9395 10.1484C35.0944 10.3398 35.2152 10.5677 35.3018 10.832C35.3883 11.0918 35.4316 11.3356 35.4316 11.5635V11.625H31.4531C31.5033 11.2832 31.5898 10.9824 31.7129 10.7227C31.8405 10.4583 31.9954 10.235 32.1777 10.0527C32.36 9.875 32.5651 9.74056 32.793 9.64941C33.0208 9.55371 33.2624 9.50586 33.5176 9.50586ZM43.7373 14.0381C43.7373 14.1566 43.7145 14.2682 43.6689 14.373C43.6234 14.4779 43.5573 14.5736 43.4707 14.6602C43.3294 14.8014 43.1335 14.9131 42.8828 14.9951C42.6322 15.0726 42.3382 15.1113 42.001 15.1113C41.7868 15.1113 41.5703 15.0885 41.3516 15.043C41.1328 14.9974 40.9346 14.9199 40.7568 14.8105C40.5745 14.7012 40.4219 14.5576 40.2988 14.3799C40.1803 14.2021 40.112 13.9834 40.0938 13.7236H38.8291C38.8291 14.0381 38.8997 14.3411 39.041 14.6328C39.1868 14.9245 39.3965 15.1797 39.6699 15.3984C39.9388 15.6217 40.2692 15.8018 40.6611 15.9385C41.0531 16.0706 41.4997 16.1367 42.001 16.1367C42.4385 16.1367 42.8418 16.0843 43.2109 15.9795C43.5801 15.8747 43.8968 15.7266 44.1611 15.5352C44.4255 15.3438 44.6305 15.1136 44.7764 14.8447C44.9268 14.5758 45.002 14.2773 45.002 13.9492C45.002 13.6439 44.9359 13.375 44.8037 13.1426C44.6761 12.9102 44.4893 12.7051 44.2432 12.5273C43.9971 12.3542 43.694 12.2061 43.334 12.083C42.974 11.9554 42.5661 11.8438 42.1104 11.748C41.764 11.6797 41.4769 11.609 41.249 11.5361C41.0257 11.4632 40.848 11.3812 40.7158 11.29C40.5791 11.1989 40.4834 11.0964 40.4287 10.9824C40.374 10.8685 40.3467 10.7386 40.3467 10.5928C40.3467 10.4515 40.3809 10.3148 40.4492 10.1826C40.5176 10.0505 40.6201 9.93424 40.7568 9.83398C40.889 9.73372 41.0553 9.65397 41.2559 9.59473C41.4609 9.53548 41.6979 9.50586 41.9668 9.50586C42.2266 9.50586 42.459 9.54232 42.6641 9.61523C42.8737 9.68815 43.0514 9.78385 43.1973 9.90234C43.3431 10.0208 43.457 10.1576 43.5391 10.3125C43.6211 10.4629 43.6621 10.6178 43.6621 10.7773H44.9268C44.9268 10.4538 44.8561 10.153 44.7148 9.875C44.5781 9.59245 44.3822 9.34635 44.127 9.13672C43.8717 8.92708 43.5618 8.76302 43.1973 8.64453C42.8327 8.52604 42.4225 8.4668 41.9668 8.4668C41.543 8.4668 41.1533 8.52376 40.7979 8.6377C40.4469 8.75163 40.1439 8.90658 39.8887 9.10254C39.6335 9.2985 39.4352 9.52865 39.2939 9.79297C39.1527 10.0527 39.082 10.333 39.082 10.6338C39.082 10.9391 39.1504 11.208 39.2871 11.4404C39.4238 11.6683 39.6175 11.8665 39.8682 12.0352C40.1143 12.2083 40.4105 12.3564 40.7568 12.4795C41.1077 12.6025 41.4951 12.7074 41.9189 12.7939C42.2653 12.8623 42.5547 12.9398 42.7871 13.0264C43.0195 13.1084 43.2064 13.1995 43.3477 13.2998C43.4889 13.4001 43.5892 13.5117 43.6484 13.6348C43.7077 13.7533 43.7373 13.8877 43.7373 14.0381Z" fill="black"/>
</svg>
